<svg width="45" height="21" viewBox="0 0 45 21" fill="none" xmlns="http://www.w3.org/2000/svg">
<path fill-rule="evenodd" clip-rule="evenodd" d="M4 1H1V20H4V1ZM0 0V21H5V0H0Z" fill="#F8F8F8"/>
<path fill-rule="evenodd" clip-rule="evenodd" d="M14 1H11V20H14V1ZM10 0V21H15V0H10Z" fill="#F8F8F8"/>
<path fill-rule="evenodd" clip-rule="evenodd" d="M24 1H21V20H24V1ZM20 0V21H25V0H20Z" fill="#F8F8F8"/>
<path fill-rule="evenodd" clip-rule="evenodd" d="M34 1H31V20H34V1ZM30 0V21H35V0H30Z" fill="#F8F8F8"/>
<path fill-rule="evenodd" clip-rule="evenodd" d="M44 1H41V20H44V1ZM40 0V21H45V0H40Z" fill="#F8F8F8"/>
</svg>
