<svg width="57" height="53" viewBox="0 0 57 53" fill="none" xmlns="http://www.w3.org/2000/svg">
<path d="M14 9.5H46.75C52.1348 9.5 56.5 13.8652 56.5 19.25V19.25C56.5 24.6348 52.1348 29 46.75 29H11C5.47715 29 1 33.4772 1 39V39C1 44.5228 5.47715 49 11 49H45" stroke="#1D1F1D"/>
<circle cx="53" cy="49" r="2" fill="#1D1F1D"/>
<circle cx="53" cy="49" r="3.5" stroke="#1D1F1D"/>
<path d="M6.5 10L3.65055 4.81919C2.45854 2.65189 4.02653 2.56611e-07 6.5 4.72849e-07C8.97348 6.89087e-07 10.5415 2.65189 9.34945 4.81919L6.5 10Z" fill="#1D1F1D"/>
</svg>
