<?xml version="1.0" encoding="utf-8"?><svg viewBox="0 0 32 33" xmlns="http://www.w3.org/2000/svg" xmlns:xlink="http://www.w3.org/1999/xlink"><style>:root>svg{display:none}:root>svg:target{display:block}</style><svg viewBox="0 0 10 6" id="arrow" xmlns="http://www.w3.org/2000/svg"><path fill-rule="evenodd" clip-rule="evenodd" d="M10 3a.25.25 0 01-.105.196.414.414 0 01-.252.082H1.22l2.248 1.747a.251.251 0 01.104.197.251.251 0 01-.104.197.415.415 0 01-.253.081.415.415 0 01-.253-.081L.105 3.197a.285.285 0 01-.078-.09.225.225 0 010-.213.285.285 0 01.078-.09L2.962.58A.415.415 0 013.215.5c.095 0 .186.03.253.081a.251.251 0 01.104.197.251.251 0 01-.104.197L1.22 2.722h8.423c.095 0 .185.03.252.082A.25.25 0 0110 3z"/></svg><svg viewBox="0 0 31 33" id="documents_icon" xmlns="http://www.w3.org/2000/svg"><path fill-rule="evenodd" clip-rule="evenodd" d="M16.792 1.646a1.292 1.292 0 00-2.584 0V11.98h-3.875c-1.6 0-2.4 0-3.069.105a8.611 8.611 0 00-7.158 7.159C0 19.913 0 20.713 0 22.313c0 1.6 0 2.4.106 3.07a8.61 8.61 0 007.158 7.157c.67.106 1.47.106 3.07.106h10.333c1.6 0 2.4 0 3.069-.106a8.61 8.61 0 007.158-7.158c.106-.67.106-1.47.106-3.07 0-1.6 0-2.4-.106-3.069a8.611 8.611 0 00-7.158-7.157c-.67-.107-1.47-.107-3.07-.107h-3.874V1.646zm0 10.334h-2.584v11.729c-.555-.564-1.216-1.394-2.177-2.607l-2.408-3.036A1.292 1.292 0 107.6 19.67l2.456 3.098c.919 1.158 1.676 2.114 2.354 2.795.696.698 1.469 1.277 2.456 1.435a4.034 4.034 0 001.27 0c.987-.158 1.76-.737 2.455-1.435.679-.681 1.436-1.637 2.355-2.795L23.4 19.67a1.292 1.292 0 10-2.024-1.605l-2.408 3.036c-.961 1.213-1.622 2.043-2.177 2.607v-11.73z"/></svg><svg viewBox="0 0 10 9" id="email" xmlns="http://www.w3.org/2000/svg"><path d="M.167 1.705C0 2.325 0 3.18 0 4.5c0 1.875 0 2.812.477 3.47a2.5 2.5 0 00.554.553C1.688 9 2.625 9 4.5 9h1c1.875 0 2.812 0 3.47-.477a2.5 2.5 0 00.553-.554C10 7.312 10 6.375 10 4.5c0-1.324 0-2.181-.168-2.801L8.78 2.749c-.816.817-1.455 1.457-2.022 1.889-.579.442-1.125.701-1.758.701s-1.18-.26-1.759-.701C2.675 4.206 2.036 3.566 1.22 2.75l-.978-.978-.075-.067z"/><path d="M.5 1l.054.045.204.183.972.971c.84.841 1.445 1.445 1.966 1.842.513.392.901.548 1.304.548s.79-.156 1.304-.548c.521-.397 1.125-1 1.966-1.842l1.154-1.154.063-.062A2.141 2.141 0 008.97.477C8.312 0 7.375 0 5.5 0h-1C2.625 0 1.688 0 1.03.477.819.632.655.787.5 1z"/></svg><svg viewBox="0 0 20 20" id="facebook" xmlns="http://www.w3.org/2000/svg"><path fill-rule="evenodd" clip-rule="evenodd" d="M9.673 0a9.558 9.558 0 100 19.115A9.558 9.558 0 009.673 0zm.638 10.116v5.813h-2.34v-5.813H6.017V7.851h1.956v-1.67c0-1.94 1.184-2.995 2.913-2.995.829 0 1.54.062 1.748.089v2.026h-1.2c-.94 0-1.122.448-1.122 1.104V7.85h2.243l-.292 2.265h-1.95z"/></svg><svg viewBox="0 0 20 20" id="inst" xmlns="http://www.w3.org/2000/svg"><path fill-rule="evenodd" clip-rule="evenodd" d="M0 9.558a9.558 9.558 0 1119.115 0A9.558 9.558 0 010 9.558zm7.567 0a1.991 1.991 0 113.982 0 1.991 1.991 0 01-3.982 0zm-1.077 0a3.067 3.067 0 106.135 0 3.067 3.067 0 00-6.135 0zm5.54-3.19a.717.717 0 10.716-.716.717.717 0 00-.717.717zM7.143 14.42c-.582-.027-.899-.124-1.11-.206a1.857 1.857 0 01-.686-.447 1.844 1.844 0 01-.447-.686c-.082-.21-.18-.527-.206-1.11-.028-.63-.034-.818-.034-2.413 0-1.596.006-1.784.034-2.414.027-.583.125-.899.206-1.11.109-.279.238-.478.447-.687a1.84 1.84 0 01.687-.447c.21-.082.527-.179 1.11-.205.629-.03.818-.035 2.412-.035 1.595 0 1.784.006 2.414.035.583.026.899.124 1.11.205.279.108.478.238.687.447.209.21.338.408.447.687.082.21.179.527.205 1.11.03.63.035.818.035 2.414 0 1.595-.006 1.783-.035 2.414-.026.582-.124.899-.205 1.109a1.851 1.851 0 01-.447.687 1.857 1.857 0 01-.687.446c-.21.082-.527.18-1.11.206-.63.029-.818.034-2.414.034-1.595 0-1.783-.005-2.413-.034zm-.05-10.8c-.635.03-1.07.13-1.45.278a2.93 2.93 0 00-1.057.689 2.919 2.919 0 00-.69 1.058c-.147.38-.248.814-.277 1.45-.03.637-.036.84-.036 2.463 0 1.622.007 1.825.036 2.462.03.636.13 1.07.278 1.45.152.393.356.726.689 1.058.332.332.665.536 1.058.69.38.147.814.248 1.45.277.637.029.84.036 2.462.036 1.623 0 1.826-.007 2.463-.036.636-.03 1.07-.13 1.45-.278a2.937 2.937 0 001.058-.689c.333-.332.536-.665.69-1.058.147-.38.248-.814.277-1.45.029-.637.035-.84.035-2.462 0-1.623-.006-1.826-.035-2.463-.03-.636-.13-1.07-.278-1.45a2.939 2.939 0 00-.689-1.058 2.923 2.923 0 00-1.057-.69c-.38-.147-.815-.248-1.45-.277-.637-.029-.84-.036-2.463-.036-1.622 0-1.826.007-2.463.036z"/></svg><svg viewBox="0 0 22 28" id="location__icon" xmlns="http://www.w3.org/2000/svg"><path fill-rule="evenodd" clip-rule="evenodd" d="M15.23 20.486a10.737 10.737 0 006.24-9.751C21.47 4.806 16.663 0 10.735 0 4.806 0 0 4.806 0 10.735c0 4.324 2.557 8.05 6.24 9.751l3.61 6.849a1 1 0 001.77 0l3.61-6.85z"/><circle cx="10.734" cy="11" r="7"/></svg><svg viewBox="0 0 20 20" id="modal_close" xmlns="http://www.w3.org/2000/svg"><path fill-rule="evenodd" clip-rule="evenodd" d="M2.381.398l8.877 8.642c.545.53.545 1.39 0 1.92l-8.877 8.642c-.545.53-1.428.53-1.972 0a1.333 1.333 0 010-1.92L8.299 10 .41 2.318a1.333 1.333 0 010-1.92 1.422 1.422 0 011.972 0z"/><path fill-rule="evenodd" clip-rule="evenodd" d="M17.619.398L8.742 9.04a1.333 1.333 0 000 1.92l8.877 8.642c.544.53 1.428.53 1.972 0 .545-.53.545-1.39 0-1.92L11.701 10l7.89-7.682c.545-.53.545-1.39 0-1.92a1.422 1.422 0 00-1.972 0z"/></svg><svg fill-rule="evenodd" clip-rule="evenodd" viewBox="0 0 24 24" id="origins-modal-trigger" xmlns="http://www.w3.org/2000/svg"><path d="M13 24h-2v-4.829a5.834 5.834 0 01-1.951-.895c-.5.15-1.019.225-1.549.225-3.033 0-5.5-2.505-5.5-5.584 0-1.283.421-2.494 1.197-3.477A4.271 4.271 0 012.9 7.875c0-2.025 1.403-3.721 3.298-4.12C7.24 1.485 9.499 0 12 0c2.501 0 4.761 1.485 5.803 3.756 1.894.398 3.297 2.094 3.297 4.119 0 .54-.102 1.07-.296 1.565A5.574 5.574 0 0122 12.917c0 3.079-2.468 5.584-5.5 5.584a5.387 5.387 0 01-1.545-.224 5.52 5.52 0 01-1.955.908V24zm-3.45-8.081c.948 1.371 2.191 1.384 2.506 1.384.341 0 1.567-.075 2.395-1.384.701.416 2.891 1.161 4.494-.438 1.389-1.392 1.615-4.14-.617-5.726 1.118-1.212.803-2.311.567-2.824-.343-.748-1.085-1.334-2.524-1.293C15.955 3.658 13.909 2 12 2c-1.894 0-3.986 1.616-4.37 3.638-1.245-.028-2.052.523-2.368 1.007-.325.5-.667 1.812.41 3.11-2.188 1.862-1.99 4.352-.616 5.726 1.866 1.864 4.011.648 4.494.438z"/></svg><svg viewBox="0 0 17 17" id="phone" xmlns="http://www.w3.org/2000/svg"><path d="M13.338 10.212c-.554-.118-.992.14-1.38.364-.398.231-1.155.845-1.587.687-2.219-.913-4.305-2.855-5.208-5.081-.16-.444.451-1.204.68-1.606.224-.389.476-.832.36-1.39C6.1 2.685 4.758.976 4.283.508 3.968.199 3.648.03 3.318.001 2.08-.05.696 1.601.454 1.997c-.609.843-.605 1.964.01 3.325 1.481 3.653 7.083 9.166 10.75 10.703.676.316 1.296.475 1.852.475.544 0 1.028-.152 1.444-.453.314-.18 2.035-1.633 1.99-2.904-.027-.325-.197-.649-.501-.963-.465-.479-2.163-1.862-2.66-1.968"/></svg><svg viewBox="0 0 7 5" id="select-icon" xmlns="http://www.w3.org/2000/svg"><path d="M1 1l2.5 2.5L6 1"/></svg><svg viewBox="0 0 32 32" id="telegram" xmlns="http://www.w3.org/2000/svg"><path fill-rule="evenodd" clip-rule="evenodd" d="M15.556 0C6.964 0 0 6.964 0 15.556c0 8.59 6.964 15.555 15.556 15.555 8.59 0 15.555-6.964 15.555-15.555C31.111 6.964 24.147 0 15.556 0zm4.954 22.737s-.408.997-1.495.521l-4.078-3.126-2.627 2.379s-.204.158-.43.068c0 0-.204-.023-.43-.77-.25-.77-1.473-4.78-1.473-4.78L5.922 15.67s-.612-.226-.68-.702c-.067-.476.703-.748.703-.748L22.05 7.9s1.314-.588 1.336.386L20.51 22.737zm-.25-11.892c.023-.34-.543 0-.543 0l-8.902 5.663a.334.334 0 00-.136.385l1.064 3.489c.069.203.363.18.408-.046l.25-2.129c0-.09.045-.159.113-.204.86-.77 7.27-6.524 7.543-6.795.294-.317.204-.363.204-.363z"/></svg><svg viewBox="0 0 32 31" id="whatsapp" xmlns="http://www.w3.org/2000/svg"><path fill-rule="evenodd" clip-rule="evenodd" d="M15.61 0C7.048 0 .11 6.94.11 15.5c0 8.56 6.939 15.5 15.5 15.5 8.56 0 15.5-6.94 15.5-15.5 0-8.56-6.94-15.5-15.5-15.5zm.638 5.893c2.346 0 4.643.929 6.304 2.64a8.87 8.87 0 012.59 6.304c0 4.936-4.007 8.993-8.943 8.993-1.466 0-2.933-.342-4.252-1.075l-4.74 1.222 1.27-4.643c-.733-1.369-1.173-2.884-1.173-4.448-.049-4.936 3.959-8.993 8.944-8.993zM12.19 21.142l.293.146c1.125.685 2.444 1.027 3.764 1.027 1.368 0 2.737-.391 3.86-1.124 3.52-2.15 4.546-6.696 2.396-10.215-2.15-3.519-6.696-4.545-10.215-2.395s-4.545 6.745-2.395 10.215l.196.293-.733 2.786 2.834-.733zm7.82-4.497l.538.245a.611.611 0 01.146.098v.342c-.049.244-.097.489-.195.684-.049.098-.147.195-.244.293a1.2 1.2 0 01-.147.122 1.294 1.294 0 00-.147.123l-.098.097a.505.505 0 01-.173.107c-.05.022-.104.046-.169.089-.195.098-.488.195-.733.195H18.3a1.442 1.442 0 00-.244-.049c-.085-.012-.17-.024-.244-.048a8.734 8.734 0 01-3.52-1.858 1.338 1.338 0 00-.24-.252c-.048-.043-.1-.088-.15-.139l-.196-.195a8.143 8.143 0 01-1.808-2.493l-.049-.146a2.9 2.9 0 01-.244-1.124c0-.538.195-1.076.537-1.516.05-.048.086-.097.123-.146.036-.049.073-.098.122-.147a.848.848 0 00.146-.098c.05-.036.098-.073.147-.097l.049-.05a.579.579 0 00.147-.024.61.61 0 01.146-.024h.538c.146.049.244.098.342.244.147.294.733 1.613.782 1.858.049.146 0 .342-.098.488-.049.05-.085.11-.122.171-.037.062-.073.123-.122.171-.147.147-.342.391-.342.391-.05.05-.05.147-.05.245.02.037.03.067.04.093a.256.256 0 00.059.102l.048.098c.245.44.587.83.929 1.173.049.049.11.098.171.147.061.049.122.097.171.146.391.391.88.684 1.417.929l.245.098a.37.37 0 00.195.097h.05a.269.269 0 00.244-.146c.684-.782.733-.831.733-.831a.7.7 0 01.342-.098c.024 0 .049.012.073.025a.175.175 0 00.073.024c.49.244 1.271.586 1.271.586z"/></svg></svg>