<svg width="37" height="37" viewBox="0 0 37 37" fill="none" xmlns="http://www.w3.org/2000/svg">
<path fill-rule="evenodd" clip-rule="evenodd" d="M35.9189 0.764233H0.764233V35.9189H35.9189V0.764233ZM0 0V36.6832H36.6832V0H0Z" fill="#F8F8F8"/>
<path fill-rule="evenodd" clip-rule="evenodd" d="M18.7233 8.8833L20.7767 11.1934L20.4911 11.4472L18.9144 9.6734V27.7742L20.4911 26.0004L20.7767 26.2542L18.7233 28.5643L16.6699 26.2542L16.9555 26.0004L18.5322 27.7742V9.6734L16.9555 11.4472L16.6699 11.1934L18.7233 8.8833Z" fill="#F8F8F8"/>
<path fill-rule="evenodd" clip-rule="evenodd" d="M8.9082 18.3415L11.1801 15.9182L11.4589 16.1795L9.6111 18.1505L27.8349 18.1505L25.9871 16.1795L26.2659 15.9182L28.5378 18.3415L26.2659 20.7649L25.9871 20.5035L27.8349 18.5326L9.6111 18.5326L11.4589 20.5035L11.1801 20.7649L8.9082 18.3415Z" fill="#F8F8F8"/>
</svg>
