<svg width="10" height="6" viewBox="0 0 10 6" fill="none" xmlns="http://www.w3.org/2000/svg">
<path fill-rule="evenodd" clip-rule="evenodd" d="M10 3C10 3.07366 9.96237 3.14431 9.8954 3.19639C9.82843 3.24848 9.73759 3.27774 9.64288 3.27774L1.21985 3.27774L3.46756 5.02527C3.53462 5.07742 3.57229 5.14816 3.57229 5.22191C3.57229 5.29566 3.53462 5.3664 3.46756 5.41855C3.4005 5.4707 3.30955 5.5 3.21472 5.5C3.11988 5.5 3.02894 5.4707 2.96188 5.41855L0.104917 3.19664C0.0716599 3.17084 0.0452737 3.14019 0.0272702 3.10645C0.00926674 3.07271 -1.10875e-07 3.03653 -1.09278e-07 3C-1.07682e-07 2.96347 0.00926675 2.92729 0.0272702 2.89355C0.0452737 2.85981 0.0716599 2.82916 0.104917 2.80336L2.96188 0.58145C3.02894 0.529298 3.11988 0.5 3.21472 0.5C3.30955 0.5 3.4005 0.529298 3.46756 0.58145C3.53462 0.633602 3.57229 0.704335 3.57229 0.778089C3.57229 0.851843 3.53462 0.922577 3.46756 0.974729L1.21985 2.72226L9.64288 2.72226C9.73759 2.72226 9.82843 2.75152 9.8954 2.80361C9.96237 2.8557 10 2.92634 10 3Z" fill="#1D1F1D"/>
</svg>
